<svg id="Layer_1" data-name="Layer 1" xmlns="http://www.w3.org/2000/svg" viewBox="0 0 222.19 194.09"><defs><style>.cls-1{fill:#112f42;}.cls-2{fill:#f4e196;}</style></defs><path class="cls-1" d="M234.75,218.18l173.8,13.26c1.2.09,1.72,1.33.86,2l-45.76,37.58a1.57,1.57,0,0,1-1.08.34l-22.79-1.26a1.32,1.32,0,0,0-1.5,1.27l1.55,19.7a1.13,1.13,0,0,1-.41.92L285.2,337.65a1.48,1.48,0,0,1-2.4-.73l-8-70.79a1.34,1.34,0,0,0-1.27-1.07L188.92,258c-1.19-.1-1.7-1.33-.84-2l45.56-37.42A1.54,1.54,0,0,1,234.75,218.18Z" transform="translate(-187.65 -143.91)"/><path class="cls-2" d="M252.26,202.57l69.36-58.31a1.48,1.48,0,0,1,2.4.74l7.09,64.4a1.31,1.31,0,0,1-1.54,1.29l-76.45-6.1C251.94,204.5,251.42,203.28,252.26,202.57Z" transform="translate(-187.65 -143.91)"/></svg>